@startuml classes_uml

class ServerState {
    + banks: BankDict
    + client_facades: ClientFacadeDict
    ___
    + banks.__getitem__(name): Bank
    + client_facades.__getitem__(UUID): ClientFacade
}

ServerState --* Bank
ServerState --* ClientFacade

protocol json_interface {
    .. Superuser ..
    + create_bank(...): JSON
    + create_client(...): JSON
    + update_client(...): JSON
    .. Client ..
    + create_account(...): JSON
    + withdraw(...): JSON
    + deposit(...): JSON
    + transfer(...): JSON
    + show_accounts(...): JSON
    + show_history(...): JSON
}

ServerState -- json_interface

class ClientFacade {
    + client: Client

    + create_account(): Account
    + withdraw(amount): BoolWithReason
    + deposit(amount): BoolWithReason
    + transfer(amount, from_account, to_account_id, bank): BoolWithReason
}

ClientFacade --> Client

class Client {
    + bank: Bank
    + name: str
    + surname: str
    + passport: str | None
    + address: str | None
    + accounts: Dict[uuid, Account]

    + create_account(): Account
    + check_withdraw_permissions(transaction): BoolWithReason
}

interface Account {
    + id: uuid
    + client: Client
    + balance: int

    + check_withdraw_permissions(transaction): BoolWithReason
}

Account <|-- DebitAccount
Account <|-- DepositAccount
Account <|-- CreditAccount
Account <|-- CashAccount

class DepositAccount {
    end_date: datetime
}

class CreditAccount {
    + credit_limit: int
    + interest_rate: float
}


class Bank {
    + accounts: Dict[uuid, Account]
    + unathorized_withdrawal_limit: int
}

Client --> Bank
Bank --* Account
Client --* Account
Account --> Client

class Transaction {
    + From: Account
    + To: Account
    + amount: int
    + date: datetime

    + perform(): BoolWithReason
    + cancel(): BoolWithReason
    + check_permissions(): BoolWithReason
}

Transaction -> "2" Account

class TransactionsHistory {
    + save(transaction): None
    + see(): List[Transaction]
}

TransactionsHistory --* Transaction
Account --> TransactionsHistory

@enduml